<svg width="96" height="96" viewBox="0 0 96 96" fill="none" xmlns="http://www.w3.org/2000/svg">
<path d="M90.2449 26.0946C90.2449 24.6236 89.4133 23.2165 88.134 22.449L50.2014 0.575616C49.5617 0.191872 48.8581 0 48.0905 0C47.3868 0 46.6192 0.191872 45.9795 0.575616L8.11092 22.449C6.83157 23.2165 6 24.5596 6 26.0946V69.9054C6 71.3764 6.83157 72.7835 8.11092 73.551L46.0435 95.4244C47.3229 96.1919 48.922 96.1919 50.2014 95.4244L88.134 73.551C89.4133 72.7835 90.2449 71.4404 90.2449 69.9054V26.0946ZM82.6328 66.068C82.6328 67.7948 81.7373 69.3937 80.266 70.2252L50.4573 87.8135C49.7536 88.2612 48.922 88.453 48.0905 88.453C47.2589 88.453 46.4913 88.2612 45.7237 87.8135L15.9149 70.2252C14.4437 69.3937 13.5481 67.7948 13.5481 66.068V34.4091C13.5481 33.6416 13.9319 32.8741 14.6356 32.4903C15.3392 32.1066 16.1068 32.1066 16.8105 32.4903L21.9279 35.4963C23.1432 36.1999 23.8469 37.6069 24.7424 39.2059C24.9343 39.5256 25.0622 39.8454 25.2541 40.1013C27.493 44.1306 28.5804 48.4157 29.6039 52.573C31.5229 60.1839 33.442 68.0506 43.229 70.6089C46.4273 71.4404 49.8815 71.4404 53.0799 70.6089C62.8029 68.0506 64.7859 60.1839 66.7049 52.573C67.7284 48.4157 68.8159 44.1306 71.0547 40.1013C71.2466 39.7815 71.3746 39.4617 71.5665 39.2059C72.398 37.6069 73.1656 36.2638 74.381 35.4963L79.4984 32.4903C80.1381 32.1066 80.9696 32.1066 81.6733 32.4903C82.3769 32.8741 82.7607 33.5776 82.7607 34.4091V66.068H82.6328ZM45.8516 8.57029C47.2589 7.73884 48.986 7.73884 50.3933 8.57029L76.1721 23.8561C76.8118 24.2398 77.1956 24.4957 77.1956 25.2632C77.1956 26.0306 76.8118 26.4783 76.1721 26.8621L71.2466 29.8041C69.0717 31.0833 67.9843 33.1299 67.0248 34.9847L66.9608 35.1126C66.8329 35.3684 66.7049 35.5603 66.577 35.8161C64.1462 40.1652 62.3552 44.7701 61.3317 48.8634C59.2847 56.7941 58.5171 62.0386 51.8645 63.7655C50.6492 64.0853 49.3698 64.2132 48.1544 64.2132C46.8751 64.2132 45.6597 64.0213 44.4443 63.7655C37.7917 62.0386 36.9602 56.7941 34.9772 48.7995C33.9537 44.7062 32.1626 40.1013 29.7319 35.7522C29.6039 35.5603 29.476 35.3045 29.3481 35.1126L29.2841 34.9207C28.3246 33.1299 27.1732 31.0193 25.0622 29.7402L20.1368 26.7981C19.4971 26.4144 19.1133 25.9667 19.1133 25.1992C19.1133 24.4317 19.4971 24.1759 20.1368 23.7921L45.8516 8.57029Z" fill="url(#paint0_linear_1101_5)"/>
<defs>
<linearGradient id="paint0_linear_1101_5" x1="90.2449" y1="0" x2="5.96876" y2="95.959" gradientUnits="userSpaceOnUse">
<stop stop-color="#00FFBF"/>
<stop offset="1" stop-color="#00BFFF"/>
</linearGradient>
</defs>
</svg>
