<svg width="1000" height="1000" viewBox="0 0 1000 1000" fill="none" xmlns="http://www.w3.org/2000/svg">
<path fill-rule="evenodd" clip-rule="evenodd" d="M908.451 239.167C921.511 247.002 930 261.366 930 276.382V723.618C930 739.287 921.511 752.998 908.451 760.833L521.222 984.124C508.162 991.959 491.838 991.959 478.778 984.124L91.549 760.833C78.489 752.998 70 738.634 70 723.618V276.382C70 260.713 78.489 247.002 91.549 239.167L478.125 15.8761C484.655 11.9587 492.491 10 499.673 10C507.509 10 514.692 11.9587 521.222 15.8761L908.451 239.167ZM840.059 282.817C850.932 289.34 858 301.3 858 313.804V686.196C858 699.243 850.932 710.66 840.059 717.183L517.669 903.107C506.796 909.631 493.204 909.631 482.331 903.107L159.941 717.183C149.068 710.66 142 698.699 142 686.196V313.804C142 300.757 149.068 289.34 159.941 282.817L481.787 96.8927C487.224 93.6309 493.748 92 499.728 92C506.252 92 512.232 93.6309 517.669 96.8927L840.059 282.817Z" fill="url(#paint0_linear_1257_16)"/>
<defs>
<linearGradient id="paint0_linear_1257_16" x1="930" y1="10" x2="69.6811" y2="989.582" gradientUnits="userSpaceOnUse">
<stop stop-color="#00FFBF"/>
<stop offset="1" stop-color="#00BFFF"/>
</linearGradient>
</defs>
</svg>
